<svg xmlns="http://www.w3.org/2000/svg" xmlns:xlink="http://www.w3.org/1999/xlink" width="500" zoomAndPan="magnify" viewBox="0 0 375 374.999991" height="500" preserveAspectRatio="xMidYMid meet" version="1.0"><defs><g/><clipPath id="c00158e505"><path d="M 75.5625 72 L 299.8125 72 L 299.8125 303 L 75.5625 303 Z M 75.5625 72 " clip-rule="nonzero"/></clipPath></defs><g clip-path="url(#c00158e505)"><path fill="#ff5400" d="M 159.34375 75.558594 C 189.550781 67.960938 220.058594 73.058594 245.152344 87.542969 C 270.726562 102.308594 290.667969 126.832031 298.917969 157.613281 C 299.097656 158.289062 299.269531 158.972656 299.441406 159.652344 L 297.675781 160.265625 C 297.496094 159.542969 297.3125 158.816406 297.117188 158.09375 C 289.003906 127.808594 269.382812 103.679688 244.21875 89.148438 C 219.1875 74.699219 188.671875 69.75 158.546875 77.683594 C 158.828125 76.980469 159.09375 76.273438 159.34375 75.558594 Z M 77.324219 215.082031 C 77.472656 215.675781 77.625 216.269531 77.785156 216.859375 C 85.898438 247.144531 105.519531 271.273438 130.683594 285.804688 C 155.832031 300.324219 186.519531 305.253906 216.789062 297.15625 C 216.496094 297.859375 216.222656 298.574219 215.960938 299.292969 C 185.621094 307.035156 154.953125 301.957031 129.753906 287.410156 C 104.175781 272.644531 84.234375 248.121094 75.988281 217.339844 C 75.84375 216.792969 75.699219 216.246094 75.5625 215.699219 Z M 77.324219 215.082031 " fill-opacity="1" fill-rule="evenodd"/></g><g fill="#ff5400" fill-opacity="1"><g transform="translate(78.367869, 196.7959)"><g><path d="M 10.09375 -5.125 C 10.09375 -3.050781 9.675781 -1.257812 8.84375 0.25 C 8.019531 1.757812 6.859375 2.921875 5.359375 3.734375 C 3.859375 4.554688 2.128906 5 0.171875 5.0625 L 0.171875 0.390625 C 3.566406 0.210938 5.265625 -1.660156 5.265625 -5.234375 L 5.265625 -24.359375 L 10.09375 -24.359375 Z M 10.09375 -5.125 "/></g></g></g><g fill="#ff5400" fill-opacity="1"><g transform="translate(118.075609, 196.7959)"><g><path d="M 19.75 -24.359375 L 19.75 -19.71875 L 7.9375 -19.71875 L 7.9375 -14.53125 L 18.40625 -14.53125 L 18.40625 -9.890625 L 7.9375 -9.890625 L 7.9375 -4.640625 L 20.21875 -4.640625 L 20.21875 0 L 3.140625 0 L 3.140625 -24.359375 Z M 19.75 -24.359375 "/></g></g></g><g fill="#ff5400" fill-opacity="1"><g transform="translate(166.583169, 196.7959)"><g><path d="M 23.390625 1.0625 L 17.609375 -13.375 L 10.859375 1.125 L 1.0625 -24.1875 L 6.6875 -24.1875 L 11.484375 -10.09375 L 15.1875 -19.390625 L 13.265625 -24.1875 L 18.03125 -24.1875 L 23.5 -10.65625 L 27.640625 -24.1875 L 32.796875 -24.1875 Z M 23.390625 1.0625 "/></g></g></g><g fill="#ff5400" fill-opacity="1"><g transform="translate(226.901001, 196.7959)"><g><path d="M 19.75 -24.359375 L 19.75 -19.71875 L 7.9375 -19.71875 L 7.9375 -14.53125 L 18.40625 -14.53125 L 18.40625 -9.890625 L 7.9375 -9.890625 L 7.9375 -4.640625 L 20.21875 -4.640625 L 20.21875 0 L 3.140625 0 L 3.140625 -24.359375 Z M 19.75 -24.359375 "/></g></g></g><g fill="#ff5400" fill-opacity="1"><g transform="translate(275.408566, 196.7959)"><g><path d="M 7.9375 -24.359375 L 7.9375 -4.640625 L 19.390625 -4.640625 L 19.390625 0 L 3.140625 0 L 3.140625 -24.359375 Z M 7.9375 -24.359375 "/></g></g></g><g fill="#ff5400" fill-opacity="1"><g transform="translate(159.478675, 226.212919)"><g><path d="M 9.296875 0 L 5.53125 0 C 5.238281 0.0625 4.957031 0.09375 4.6875 0.09375 C 3.9375 0.09375 3.242188 -0.09375 2.609375 -0.46875 C 1.984375 -0.84375 1.484375 -1.34375 1.109375 -1.96875 C 0.734375 -2.601562 0.546875 -3.296875 0.546875 -4.046875 C 0.546875 -4.785156 0.734375 -5.472656 1.109375 -6.109375 C 1.484375 -6.753906 1.988281 -7.265625 2.625 -7.640625 C 3.257812 -8.015625 3.945312 -8.203125 4.6875 -8.203125 C 5.425781 -8.203125 6.113281 -8.015625 6.75 -7.640625 C 7.382812 -7.265625 7.890625 -6.753906 8.265625 -6.109375 C 8.648438 -5.472656 8.84375 -4.785156 8.84375 -4.046875 C 8.84375 -3.585938 8.769531 -3.144531 8.625 -2.71875 C 8.476562 -2.300781 8.273438 -1.914062 8.015625 -1.5625 L 9.296875 -1.5625 Z M 2.203125 -4.046875 C 2.203125 -3.578125 2.3125 -3.144531 2.53125 -2.75 C 2.757812 -2.351562 3.066406 -2.039062 3.453125 -1.8125 C 3.835938 -1.582031 4.269531 -1.46875 4.75 -1.46875 C 5.195312 -1.46875 5.609375 -1.582031 5.984375 -1.8125 C 6.359375 -2.039062 6.648438 -2.351562 6.859375 -2.75 C 7.078125 -3.144531 7.1875 -3.578125 7.1875 -4.046875 C 7.1875 -4.515625 7.078125 -4.945312 6.859375 -5.34375 C 6.640625 -5.738281 6.335938 -6.050781 5.953125 -6.28125 C 5.578125 -6.507812 5.160156 -6.625 4.703125 -6.625 C 4.234375 -6.625 3.8125 -6.507812 3.4375 -6.28125 C 3.0625 -6.050781 2.757812 -5.738281 2.53125 -5.34375 C 2.3125 -4.945312 2.203125 -4.515625 2.203125 -4.046875 Z M 2.203125 -4.046875 "/></g></g></g><g fill="#ff5400" fill-opacity="1"><g transform="translate(173.72814, 226.212919)"><g><path d="M 2.484375 -3 C 2.484375 -2.738281 2.5625 -2.488281 2.71875 -2.25 C 2.875 -2.019531 3.078125 -1.832031 3.328125 -1.6875 C 3.585938 -1.539062 3.863281 -1.46875 4.15625 -1.46875 C 4.476562 -1.46875 4.769531 -1.539062 5.03125 -1.6875 C 5.289062 -1.832031 5.492188 -2.019531 5.640625 -2.25 C 5.796875 -2.488281 5.875 -2.738281 5.875 -3 L 5.875 -8.125 L 7.453125 -8.125 L 7.453125 -2.96875 C 7.453125 -2.382812 7.304688 -1.859375 7.015625 -1.390625 C 6.722656 -0.921875 6.320312 -0.554688 5.8125 -0.296875 C 5.3125 -0.0351562 4.757812 0.09375 4.15625 0.09375 C 3.550781 0.09375 3 -0.0351562 2.5 -0.296875 C 2 -0.554688 1.601562 -0.921875 1.3125 -1.390625 C 1.019531 -1.859375 0.875 -2.382812 0.875 -2.96875 L 0.875 -8.125 L 2.484375 -8.125 Z M 2.484375 -3 "/></g></g></g><g fill="#ff5400" fill-opacity="1"><g transform="translate(186.46846, 226.212919)"><g><path d="M 6.578125 -8.125 L 6.578125 -6.578125 L 2.640625 -6.578125 L 2.640625 -4.84375 L 6.140625 -4.84375 L 6.140625 -3.296875 L 2.640625 -3.296875 L 2.640625 -1.546875 L 6.734375 -1.546875 L 6.734375 0 L 1.046875 0 L 1.046875 -8.125 Z M 6.578125 -8.125 "/></g></g></g><g fill="#ff5400" fill-opacity="1"><g transform="translate(198.217379, 226.212919)"><g><path d="M 5.390625 -6.15625 C 4.679688 -6.539062 4.066406 -6.734375 3.546875 -6.734375 C 3.191406 -6.734375 2.914062 -6.664062 2.71875 -6.53125 C 2.519531 -6.394531 2.421875 -6.1875 2.421875 -5.90625 C 2.421875 -5.644531 2.5625 -5.414062 2.84375 -5.21875 C 3.132812 -5.03125 3.515625 -4.847656 3.984375 -4.671875 C 4.367188 -4.523438 4.695312 -4.363281 4.96875 -4.1875 C 5.238281 -4.007812 5.460938 -3.757812 5.640625 -3.4375 C 5.816406 -3.125 5.90625 -2.722656 5.90625 -2.234375 C 5.90625 -1.816406 5.796875 -1.429688 5.578125 -1.078125 C 5.367188 -0.722656 5.050781 -0.4375 4.625 -0.21875 C 4.207031 -0.0078125 3.710938 0.09375 3.140625 0.09375 C 2.648438 0.09375 2.164062 0.0195312 1.6875 -0.125 C 1.207031 -0.269531 0.765625 -0.488281 0.359375 -0.78125 L 1.0625 -2.03125 C 1.34375 -1.820312 1.660156 -1.648438 2.015625 -1.515625 C 2.378906 -1.390625 2.703125 -1.328125 2.984375 -1.328125 C 3.328125 -1.328125 3.625 -1.394531 3.875 -1.53125 C 4.125 -1.675781 4.25 -1.910156 4.25 -2.234375 C 4.25 -2.660156 3.851562 -3.023438 3.0625 -3.328125 C 2.601562 -3.515625 2.21875 -3.691406 1.90625 -3.859375 C 1.59375 -4.023438 1.320312 -4.265625 1.09375 -4.578125 C 0.875 -4.898438 0.765625 -5.300781 0.765625 -5.78125 C 0.765625 -6.476562 0.992188 -7.039062 1.453125 -7.46875 C 1.921875 -7.894531 2.535156 -8.125 3.296875 -8.15625 C 3.898438 -8.15625 4.40625 -8.085938 4.8125 -7.953125 C 5.21875 -7.816406 5.609375 -7.625 5.984375 -7.375 Z M 5.390625 -6.15625 "/></g></g></g><g fill="#ff5400" fill-opacity="1"><g transform="translate(209.051995, 226.212919)"><g><path d="M 5.96875 -8.125 L 5.96875 -6.578125 L 4 -6.578125 L 4 0 L 2.390625 0 L 2.390625 -6.578125 L 0.5 -6.578125 L 0.5 -8.125 Z M 5.96875 -8.125 "/></g></g></g><g fill="#ff5400" fill-opacity="1"><g transform="translate(167.705282, 184.147282)"><g><path d="M 54.71875 -57.515625 C 55.445312 -57.109375 55.25 -56.625 54.125 -56.0625 L 52.90625 -55.578125 C 52.820312 -55.492188 52.660156 -55.570312 52.421875 -55.8125 C 52.253906 -56.0625 52.253906 -56.265625 52.421875 -56.421875 C 52.578125 -56.660156 52.613281 -56.800781 52.53125 -56.84375 C 52.457031 -56.882812 52.097656 -56.90625 51.453125 -56.90625 C 51.128906 -56.988281 50.722656 -57.050781 50.234375 -57.09375 C 49.753906 -57.132812 49.3125 -57.195312 48.90625 -57.28125 C 48.332031 -57.351562 46.972656 -57.453125 44.828125 -57.578125 C 42.691406 -57.703125 40.226562 -57.800781 37.4375 -57.875 C 34.644531 -57.957031 31.910156 -58.039062 29.234375 -58.125 C 26.566406 -58.207031 24.34375 -58.25 22.5625 -58.25 L 22.078125 -58.25 C 21.921875 -58.25 21.660156 -58.265625 21.296875 -58.296875 C 20.929688 -58.335938 20.503906 -58.320312 20.015625 -58.25 L 19.421875 -57.875 C 19.335938 -57.71875 19.191406 -57.554688 18.984375 -57.390625 C 18.785156 -57.234375 18.601562 -57.03125 18.4375 -56.78125 L 17.359375 -55.703125 C 17.023438 -55.210938 16.613281 -54.742188 16.125 -54.296875 C 15.644531 -53.859375 15.082031 -53.273438 14.4375 -52.546875 L 12.375 -50.359375 C 11.894531 -49.710938 11.453125 -49.1875 11.046875 -48.78125 C 10.878906 -48.613281 10.613281 -48.328125 10.25 -47.921875 C 9.882812 -47.523438 9.5 -47.125 9.09375 -46.71875 C 8.039062 -45.5 7.234375 -44.546875 6.671875 -43.859375 C 6.109375 -43.171875 5.539062 -42.503906 4.96875 -41.859375 L 3.515625 -40.28125 L 2.421875 -38.953125 L -0.84375 -35.3125 L -4.859375 -30.703125 L -6.796875 -28.390625 C -8.085938 -26.929688 -9.539062 -25.191406 -11.15625 -23.171875 C -12.78125 -21.148438 -14.300781 -19.1875 -15.71875 -17.28125 C -17.132812 -15.382812 -18.242188 -13.867188 -19.046875 -12.734375 C -19.453125 -12.085938 -19.859375 -11.335938 -20.265625 -10.484375 C -20.671875 -9.640625 -20.914062 -9.054688 -21 -8.734375 C -21 -8.328125 -20.832031 -8.125 -20.5 -8.125 C -20.175781 -8.050781 -20.097656 -7.890625 -20.265625 -7.640625 C -20.347656 -7.484375 -20.628906 -7.40625 -21.109375 -7.40625 C -21.429688 -7.476562 -21.675781 -7.800781 -21.84375 -8.375 C -21.925781 -8.851562 -21.765625 -9.617188 -21.359375 -10.671875 C -21.191406 -11.078125 -21.046875 -11.441406 -20.921875 -11.765625 C -20.804688 -12.085938 -20.75 -12.210938 -20.75 -12.140625 C -20.664062 -12.140625 -20.625 -12.257812 -20.625 -12.5 C -20.625 -12.5 -20.601562 -12.519531 -20.5625 -12.5625 C -20.519531 -12.601562 -20.5 -12.660156 -20.5 -12.734375 C -20.34375 -12.660156 -20.222656 -12.785156 -20.140625 -13.109375 C -20.054688 -13.265625 -20.015625 -13.46875 -20.015625 -13.71875 L -20.015625 -13.953125 C -19.859375 -13.867188 -19.132812 -14.71875 -17.84375 -16.5 L -12.859375 -23.171875 L -9.828125 -26.9375 C -9.179688 -27.75 -8.59375 -28.476562 -8.0625 -29.125 C -7.539062 -29.769531 -7.238281 -30.132812 -7.15625 -30.21875 C -7 -30.300781 -6.773438 -30.503906 -6.484375 -30.828125 C -6.203125 -31.148438 -5.898438 -31.507812 -5.578125 -31.90625 C -4.609375 -33.207031 -3.921875 -34.078125 -3.515625 -34.515625 C -3.109375 -34.960938 -2.867188 -35.1875 -2.796875 -35.1875 C -2.710938 -35.1875 -2.550781 -35.390625 -2.3125 -35.796875 L -1.328125 -37.015625 L -0.359375 -38.109375 C 0.929688 -39.640625 1.859375 -40.726562 2.421875 -41.375 C 2.992188 -42.019531 3.441406 -42.503906 3.765625 -42.828125 C 4.410156 -43.484375 4.734375 -43.847656 4.734375 -43.921875 C 4.734375 -43.847656 5.054688 -44.191406 5.703125 -44.953125 C 6.347656 -45.722656 6.671875 -46.109375 6.671875 -46.109375 C 7.078125 -46.671875 7.804688 -47.554688 8.859375 -48.765625 C 9.910156 -49.984375 11.019531 -51.238281 12.1875 -52.53125 C 13.363281 -53.832031 14.234375 -54.765625 14.796875 -55.328125 L 16.265625 -56.90625 L 16.625 -57.390625 L 16.984375 -57.640625 C 17.066406 -57.796875 17.148438 -57.914062 17.234375 -58 C 17.316406 -58.082031 17.394531 -58.164062 17.46875 -58.25 C 16.175781 -58.25 14.679688 -58.25 12.984375 -58.25 C 11.285156 -58.25 10.15625 -58.207031 9.59375 -58.125 L 5.578125 -57.875 L 2.3125 -57.765625 L -0.734375 -57.515625 C -2.179688 -57.429688 -3.53125 -57.328125 -4.78125 -57.203125 C -6.039062 -57.085938 -6.753906 -56.988281 -6.921875 -56.90625 C -7.722656 -56.75 -8.609375 -56.628906 -9.578125 -56.546875 C -10.554688 -56.460938 -11.082031 -56.460938 -11.15625 -56.546875 C -11.5625 -56.953125 -11.203125 -57.316406 -10.078125 -57.640625 C -9.753906 -57.722656 -9.003906 -57.820312 -7.828125 -57.9375 C -6.648438 -58.0625 -5.414062 -58.179688 -4.125 -58.296875 C -2.832031 -58.421875 -1.863281 -58.484375 -1.21875 -58.484375 L 1.453125 -58.734375 L 18.5625 -59.09375 L 19.046875 -59.578125 L 20.015625 -60.671875 L 20.390625 -61.03125 C 20.546875 -61.195312 20.925781 -61.539062 21.53125 -62.0625 C 22.144531 -62.59375 22.734375 -63.140625 23.296875 -63.703125 C 23.859375 -64.273438 24.179688 -64.597656 24.265625 -64.671875 C 24.347656 -64.835938 24.957031 -65.363281 26.09375 -66.25 L 27.1875 -67.21875 C 27.257812 -67.382812 27.554688 -67.671875 28.078125 -68.078125 C 28.609375 -68.484375 28.914062 -68.6875 29 -68.6875 C 29.238281 -68.6875 29.398438 -68.5625 29.484375 -68.3125 C 29.648438 -67.988281 29.609375 -67.707031 29.359375 -67.46875 L 28.875 -66.859375 L 27.671875 -65.890625 C 27.265625 -65.566406 26.71875 -65.082031 26.03125 -64.4375 C 25.34375 -63.789062 24.875 -63.304688 24.625 -62.984375 C 24.144531 -62.410156 23.660156 -61.921875 23.171875 -61.515625 C 22.847656 -61.191406 22.441406 -60.785156 21.953125 -60.296875 C 21.472656 -59.816406 21.15625 -59.457031 21 -59.21875 L 23.296875 -59.21875 L 26.703125 -59.09375 C 27.265625 -59.09375 28.675781 -59.050781 30.9375 -58.96875 C 33.207031 -58.894531 35.71875 -58.796875 38.46875 -58.671875 C 41.21875 -58.546875 43.722656 -58.441406 45.984375 -58.359375 C 48.253906 -58.285156 49.710938 -58.207031 50.359375 -58.125 C 51.734375 -58.039062 52.722656 -57.957031 53.328125 -57.875 C 53.929688 -57.800781 54.394531 -57.679688 54.71875 -57.515625 Z M 54.71875 -57.515625 "/></g></g></g><g fill="#ff5400" fill-opacity="1"><g transform="translate(180.081816, 184.147282)"><g><path d="M 43.6875 -66.734375 C 44.164062 -66.171875 44.082031 -65.445312 43.4375 -64.5625 C 43.195312 -64.15625 42.769531 -63.625 42.15625 -62.96875 C 41.550781 -62.320312 41.085938 -61.921875 40.765625 -61.765625 L 38.953125 -60.421875 C 38.628906 -60.097656 38.203125 -59.773438 37.671875 -59.453125 C 37.148438 -59.128906 36.726562 -58.847656 36.40625 -58.609375 L 34.578125 -57.515625 C 34.097656 -57.191406 33.734375 -57.03125 33.484375 -57.03125 C 33.160156 -56.863281 32.960938 -56.742188 32.890625 -56.671875 C 32.890625 -56.503906 32.6875 -56.34375 32.28125 -56.1875 L 31.546875 -55.9375 C 31.066406 -55.695312 30.238281 -55.269531 29.0625 -54.65625 C 27.882812 -54.050781 26.648438 -53.445312 25.359375 -52.84375 C 24.066406 -52.238281 22.972656 -51.734375 22.078125 -51.328125 C 21.429688 -51.003906 20.988281 -50.84375 20.75 -50.84375 C 20.507812 -50.84375 19.820312 -50.5625 18.6875 -50 L 16.625 -49.140625 C 16.539062 -49.054688 16.253906 -48.929688 15.765625 -48.765625 C 15.285156 -48.609375 14.640625 -48.332031 13.828125 -47.9375 L 9.21875 -45.875 L 8.609375 -45.5 L 6.546875 -43.4375 C 5.421875 -42.3125 4.1875 -41.078125 2.84375 -39.734375 C 1.507812 -38.398438 0.765625 -37.570312 0.609375 -37.25 L 0.609375 -37.015625 C 0.691406 -36.929688 0.894531 -36.96875 1.21875 -37.125 C 1.289062 -37.125 1.328125 -37.144531 1.328125 -37.1875 C 1.328125 -37.226562 1.367188 -37.25 1.453125 -37.25 C 1.941406 -37.488281 2.488281 -37.726562 3.09375 -37.96875 C 3.695312 -38.21875 4.484375 -38.503906 5.453125 -38.828125 C 6.753906 -39.234375 7.523438 -39.273438 7.765625 -38.953125 C 7.847656 -38.785156 7.6875 -38.460938 7.28125 -37.984375 C 6.144531 -36.847656 5.457031 -36.035156 5.21875 -35.546875 L 5.09375 -35.1875 C 4.6875 -34.375 4.566406 -33.96875 4.734375 -33.96875 L 4.96875 -33.96875 L 5.453125 -34.09375 C 6.109375 -34.34375 7.242188 -34.828125 8.859375 -35.546875 C 10.472656 -36.273438 11.6875 -36.800781 12.5 -37.125 L 15.53125 -38.46875 C 15.769531 -38.46875 16.007812 -38.445312 16.25 -38.40625 C 16.5 -38.363281 16.34375 -38.140625 15.78125 -37.734375 C 15.050781 -37.492188 14.664062 -37.351562 14.625 -37.3125 C 14.582031 -37.269531 14.539062 -37.226562 14.5 -37.1875 C 14.457031 -37.144531 13.992188 -36.925781 13.109375 -36.53125 C 12.785156 -36.445312 12.519531 -36.300781 12.3125 -36.09375 C 12.113281 -35.894531 11.929688 -35.796875 11.765625 -35.796875 C 10.960938 -35.472656 10.5 -35.25 10.375 -35.125 C 10.25 -35.007812 9.988281 -34.867188 9.59375 -34.703125 C 9.34375 -34.617188 8.609375 -34.3125 7.390625 -33.78125 C 6.179688 -33.257812 5.335938 -32.960938 4.859375 -32.890625 L 4.609375 -32.765625 C 4.367188 -32.679688 4.046875 -32.757812 3.640625 -33 C 3.148438 -33.40625 3.109375 -34.09375 3.515625 -35.0625 L 3.890625 -35.796875 C 4.046875 -36.203125 4.285156 -36.601562 4.609375 -37 C 4.929688 -37.40625 5.132812 -37.609375 5.21875 -37.609375 C 5.300781 -37.609375 5.34375 -37.648438 5.34375 -37.734375 C 5.34375 -37.816406 5.140625 -37.773438 4.734375 -37.609375 L 3.390625 -37.125 C 2.742188 -36.96875 2.300781 -36.769531 2.0625 -36.53125 L 1.328125 -36.046875 L 1.21875 -36.046875 L 0.484375 -35.671875 L -0.96875 -34.21875 L -1.21875 -34.09375 L -1.578125 -33.859375 L -1.9375 -33.484375 L -2.546875 -33 L -2.90625 -32.765625 C -3.070312 -32.597656 -3.273438 -32.554688 -3.515625 -32.640625 C -3.597656 -32.722656 -3.738281 -32.820312 -3.9375 -32.9375 C -4.144531 -33.0625 -4.25 -33.207031 -4.25 -33.375 C -4.25 -33.613281 -4.144531 -33.851562 -3.9375 -34.09375 C -3.738281 -34.34375 -3.554688 -34.546875 -3.390625 -34.703125 L -2.3125 -35.921875 L -1.21875 -37.25 L -0.734375 -37.734375 L 3.515625 -42.234375 C 4.160156 -42.796875 4.664062 -43.28125 5.03125 -43.6875 C 5.394531 -44.09375 5.578125 -44.296875 5.578125 -44.296875 C 5.492188 -44.367188 5.3125 -44.363281 5.03125 -44.28125 C 4.75 -44.207031 4.609375 -44.128906 4.609375 -44.046875 C 4.523438 -43.960938 4.421875 -43.921875 4.296875 -43.921875 C 4.179688 -43.921875 4.082031 -43.882812 4 -43.8125 L 1.8125 -43.078125 C 1.164062 -42.910156 0.722656 -42.75 0.484375 -42.59375 L -0.734375 -41.984375 C -1.378906 -41.828125 -1.78125 -41.75 -1.9375 -41.75 C -2.425781 -41.75 -2.550781 -41.988281 -2.3125 -42.46875 C -2.144531 -42.632812 -1.816406 -42.796875 -1.328125 -42.953125 L 2.421875 -44.296875 L 3.640625 -44.78125 C 3.804688 -44.9375 4.050781 -45.054688 4.375 -45.140625 C 4.851562 -45.378906 5.175781 -45.5 5.34375 -45.5 C 5.414062 -45.5 5.472656 -45.519531 5.515625 -45.5625 C 5.554688 -45.601562 5.578125 -45.625 5.578125 -45.625 C 5.578125 -45.625 5.941406 -45.785156 6.671875 -46.109375 L 7.765625 -46.46875 C 7.929688 -46.632812 8.175781 -46.859375 8.5 -47.140625 C 8.820312 -47.421875 9.144531 -47.722656 9.46875 -48.046875 L 13.59375 -51.6875 L 16.140625 -53.875 L 20.015625 -56.90625 C 20.097656 -56.988281 20.484375 -57.269531 21.171875 -57.75 C 21.859375 -58.238281 22.566406 -58.726562 23.296875 -59.21875 L 25.359375 -60.546875 L 26.453125 -61.28125 L 27.78125 -62 C 30.613281 -63.625 33.445312 -64.835938 36.28125 -65.640625 L 37.25 -65.890625 C 37.894531 -66.210938 38.703125 -66.457031 39.671875 -66.625 L 41.015625 -66.859375 C 41.660156 -67.023438 42.242188 -67.085938 42.765625 -67.046875 C 43.296875 -67.003906 43.601562 -66.898438 43.6875 -66.734375 Z M 42.46875 -64.921875 C 42.46875 -64.921875 42.488281 -64.957031 42.53125 -65.03125 C 42.570312 -65.113281 42.59375 -65.195312 42.59375 -65.28125 C 42.507812 -65.519531 42.347656 -65.679688 42.109375 -65.765625 C 41.941406 -65.847656 41.472656 -65.847656 40.703125 -65.765625 C 39.941406 -65.679688 39.476562 -65.601562 39.3125 -65.53125 L 37.375 -64.921875 C 36.320312 -64.597656 35.066406 -64.171875 33.609375 -63.640625 C 32.148438 -63.117188 30.859375 -62.570312 29.734375 -62 C 28.191406 -61.195312 26.570312 -60.25 24.875 -59.15625 C 23.175781 -58.0625 21.882812 -57.148438 21 -56.421875 L 20.015625 -55.703125 C 19.941406 -55.703125 19.476562 -55.359375 18.625 -54.671875 C 17.78125 -53.984375 16.8125 -53.171875 15.71875 -52.234375 C 14.625 -51.304688 13.671875 -50.476562 12.859375 -49.75 L 11.40625 -48.53125 C 11.320312 -48.53125 11.28125 -48.410156 11.28125 -48.171875 C 11.28125 -48.085938 11.6875 -48.207031 12.5 -48.53125 C 12.90625 -48.695312 13.226562 -48.859375 13.46875 -49.015625 C 13.707031 -49.179688 13.867188 -49.265625 13.953125 -49.265625 C 14.117188 -49.265625 14.523438 -49.425781 15.171875 -49.75 C 15.492188 -49.914062 15.753906 -50.035156 15.953125 -50.109375 C 16.160156 -50.191406 16.300781 -50.234375 16.375 -50.234375 C 16.457031 -50.234375 16.90625 -50.394531 17.71875 -50.71875 L 20.390625 -51.8125 L 22.8125 -52.90625 L 24.515625 -53.515625 C 24.671875 -53.597656 24.953125 -53.71875 25.359375 -53.875 C 25.765625 -54.039062 26.128906 -54.242188 26.453125 -54.484375 L 28.765625 -55.578125 L 30.09375 -56.296875 L 31.546875 -57.03125 L 35.671875 -59.34375 C 36.484375 -59.820312 37.289062 -60.34375 38.09375 -60.90625 C 38.90625 -61.476562 39.472656 -61.925781 39.796875 -62.25 L 41.015625 -63.21875 C 41.097656 -63.21875 41.34375 -63.5 41.75 -64.0625 Z M 42.46875 -64.921875 "/></g></g></g><g fill="#ff5400" fill-opacity="1"><g transform="translate(197.554543, 184.147282)"><g><path d="M -1.21875 -33.125 C -2.1875 -33.039062 -2.789062 -33.019531 -3.03125 -33.0625 C -3.269531 -33.101562 -3.429688 -33.328125 -3.515625 -33.734375 C -3.679688 -34.140625 -3.519531 -34.742188 -3.03125 -35.546875 C -2.382812 -36.523438 -1.453125 -37.5 -0.234375 -38.46875 C 0.972656 -39.4375 2.179688 -40.125 3.390625 -40.53125 C 5.335938 -41.257812 6.429688 -41.300781 6.671875 -40.65625 C 6.753906 -40.332031 5.863281 -39.519531 4 -38.21875 C 2.945312 -37.488281 2.078125 -36.941406 1.390625 -36.578125 C 0.703125 -36.222656 0.0351562 -35.960938 -0.609375 -35.796875 C -1.335938 -35.628906 -1.78125 -35.347656 -1.9375 -34.953125 C -2.257812 -34.628906 -2.300781 -34.425781 -2.0625 -34.34375 C -1.332031 -34.09375 2.46875 -35.46875 9.34375 -38.46875 L 9.59375 -38.59375 L 9.953125 -38.59375 L 10.078125 -38.46875 C 10.398438 -38.300781 10.4375 -38.097656 10.1875 -37.859375 L 8.609375 -37.125 L 3.15625 -34.703125 C 2.101562 -34.140625 1.269531 -33.773438 0.65625 -33.609375 C 0.0507812 -33.453125 -0.570312 -33.289062 -1.21875 -33.125 Z M -0.25 -37.125 C -0.320312 -37.050781 -0.175781 -37.070312 0.1875 -37.1875 C 0.550781 -37.3125 1.054688 -37.535156 1.703125 -37.859375 C 2.265625 -38.179688 2.890625 -38.5625 3.578125 -39 C 4.265625 -39.445312 4.648438 -39.710938 4.734375 -39.796875 C 4.734375 -39.960938 4.507812 -39.941406 4.0625 -39.734375 C 3.613281 -39.535156 3.191406 -39.351562 2.796875 -39.1875 C 2.390625 -39.113281 1.800781 -38.789062 1.03125 -38.21875 C 0.257812 -37.65625 -0.164062 -37.289062 -0.25 -37.125 Z M -0.25 -37.125 "/></g></g></g></svg>